<?xml version="1.0" encoding="UTF-8"?>
<svg xmlns="http://www.w3.org/2000/svg" width="1212" height="1051" viewBox="0 0 1212 1051" role="img" aria-labelledby="title desc">
<title>Lucky Lady Trips Full Logo</title>
<desc>Vector-traced Lucky Lady Trips logo concept with emblem, macaw, boat, palm, waves, script lettering, and grey outline.</desc>
<metadata>Created from approved Lucky Lady Trips concept as a clean SVG draft. Colors: navy #001A3D, blue #0056B8, gold #FFC400, green #009B55, grey #A7A9AC.</metadata>
<g id="Lucky-Lady-Trips-logo">
<path d="M820,973 L821,986 L827,993 L834,996 L903,996 L910,993 L917,982 L917,973 L914,966 L909,961 L904,959 L833,959 L828,961 L822,967 Z M824,972 L826,968 L833,963 L904,963 L911,969 L913,977 L911,986 L903,992 L834,992 L826,987 L824,983 Z M296,975 L297,984 L300,990 L305,994 L311,996 L379,996 L387,992 L392,984 L391,968 L385,961 L380,959 L309,959 L299,966 Z M301,972 L303,968 L310,963 L380,963 L387,969 L389,974 L389,981 L387,986 L379,992 L311,992 L303,987 L301,983 Z M658,931 L652,933 L647,938 L644,946 L645,1011 L648,1017 L654,1021 L674,1021 L681,1016 L684,1009 L684,1003 L686,1001 L701,998 L708,994 L714,988 L720,975 L721,963 L719,954 L715,946 L704,936 L688,931 Z M694,936 L703,940 L712,949 L716,958 L717,966 L715,978 L711,985 L704,992 L692,997 L681,997 L680,1009 L675,1016 L671,1018 L655,1017 L649,1011 L648,1008 L649,942 L657,935 Z M598,931 L590,935 L587,939 L585,946 L585,1009 L588,1016 L595,1021 L615,1021 L621,1017 L625,1008 L625,944 L622,937 L615,932 Z M598,935 L612,935 L616,937 L621,944 L621,1009 L619,1013 L612,1018 L596,1017 L591,1013 L589,1009 L589,944 L591,940 Z M409,932 L405,934 L400,940 L399,959 L406,968 L416,970 L418,972 L418,1011 L420,1015 L427,1021 L447,1021 L454,1016 L457,1010 L457,972 L459,970 L470,967 L474,963 L476,958 L476,942 L470,934 L463,931 Z M411,935 L463,935 L469,938 L472,943 L472,958 L470,962 L463,966 L453,967 L453,1009 L452,1012 L446,1017 L432,1018 L427,1016 L422,1011 L421,967 L411,966 L403,959 L402,946 L404,941 Z M766,930 L755,933 L745,939 L736,953 L735,969 L741,983 L734,992 L733,1002 L736,1008 L742,1014 L753,1020 L766,1023 L776,1023 L786,1021 L795,1016 L802,1009 L806,1002 L807,982 L803,973 L800,970 L800,967 L806,957 L806,949 L803,943 L793,935 L782,931 Z M766,934 L777,934 L788,937 L796,942 L803,951 L801,960 L794,968 L794,970 L801,977 L804,984 L803,999 L799,1007 L794,1012 L785,1017 L777,1019 L766,1019 L751,1015 L741,1008 L737,1001 L737,995 L739,991 L746,984 L739,970 L740,953 L744,946 L750,940 L755,937 Z M1183,732 L1176,721 L1170,717 L1160,714 L1141,715 L1131,719 L1126,724 L1124,724 L1120,719 L1111,714 L1092,712 L1090,710 L1114,671 L1116,665 L1116,652 L1113,645 L1104,636 L1086,630 L1067,633 L1058,638 L1050,646 L1040,662 L1015,710 L994,709 L985,711 L970,717 L955,728 L953,728 L942,715 L935,712 L912,711 L908,713 L903,713 L894,710 L892,708 L909,689 L922,666 L927,650 L928,634 L926,623 L918,608 L906,598 L889,592 L865,593 L842,602 L823,615 L801,639 L788,659 L774,687 L732,794 L728,800 L699,799 L684,803 L671,811 L665,800 L655,793 L678,748 L680,741 L680,733 L676,723 L664,714 L656,712 L638,713 L628,717 L622,723 L620,723 L613,716 L603,712 L584,712 L572,717 L563,724 L557,717 L550,712 L543,709 L539,709 L537,707 L563,661 L599,662 L625,660 L657,654 L677,647 L692,647 L714,644 L731,640 L759,630 L797,609 L822,589 L843,568 L879,524 L891,505 L901,485 L909,465 L917,438 L922,414 L926,378 L926,335 L922,301 L917,278 L906,245 L897,209 L885,176 L871,146 L853,115 L833,88 L811,66 L791,51 L770,40 L742,31 L726,29 L703,30 L682,36 L664,46 L650,60 L643,73 L636,77 L630,83 L628,81 L628,76 L626,72 L622,68 L616,66 L596,64 L550,66 L522,71 L485,82 L468,89 L430,109 L390,139 L352,179 L325,220 L305,264 L296,293 L289,326 L286,355 L286,390 L289,421 L298,462 L308,490 L318,510 L315,513 L292,524 L287,529 L286,538 L288,542 L293,545 L301,545 L336,538 L341,547 L359,569 L379,589 L404,609 L443,632 L467,642 L491,649 L493,651 L459,722 L456,725 L448,717 L434,710 L409,709 L388,716 L371,728 L367,722 L355,712 L348,710 L331,710 L318,715 L308,724 L299,714 L289,710 L284,710 L282,707 L300,686 L309,672 L316,657 L321,640 L320,614 L312,598 L303,589 L292,583 L282,580 L266,579 L243,584 L226,592 L213,601 L189,625 L169,655 L143,711 L129,708 L122,704 L119,700 L120,692 L131,682 L134,675 L133,665 L126,657 L119,654 L107,654 L97,657 L82,667 L74,676 L67,688 L63,701 L63,720 L70,738 L81,751 L91,758 L108,765 L120,767 L122,769 L104,815 L101,818 L83,818 L65,823 L48,833 L40,841 L32,854 L29,865 L29,878 L32,889 L38,899 L48,908 L61,914 L84,916 L101,912 L117,904 L137,887 L140,887 L185,909 L230,926 L255,932 L283,934 L305,931 L317,927 L330,921 L343,912 L357,897 L366,880 L368,873 L368,864 L364,856 L366,853 L377,856 L394,856 L404,854 L421,847 L426,852 L432,855 L452,856 L463,853 L474,842 L481,849 L492,855 L499,857 L507,857 L509,859 L501,870 L498,877 L498,902 L503,912 L512,921 L521,926 L534,929 L533,931 L504,931 L497,934 L493,938 L491,942 L491,1011 L493,1015 L501,1021 L521,1021 L528,1015 L537,1021 L558,1021 L561,1020 L568,1011 L568,1002 L560,990 L560,987 L567,973 L567,956 L563,947 L557,940 L548,934 L538,932 L537,930 L548,929 L563,925 L581,915 L598,898 L609,882 L615,870 L632,861 L648,848 L650,850 L650,861 L653,871 L660,882 L671,891 L685,897 L706,899 L722,896 L740,888 L758,874 L801,900 L842,919 L879,929 L917,930 L932,927 L956,917 L970,907 L981,895 L985,888 L989,886 L990,887 L987,897 L988,912 L992,922 L1001,933 L1013,940 L1024,943 L1043,943 L1058,939 L1076,929 L1095,911 L1117,878 L1129,874 L1148,863 L1165,848 L1174,836 L1179,825 L1178,811 L1172,803 L1164,800 L1159,800 L1157,798 L1182,748 Z M501,936 L537,935 L549,939 L558,947 L563,956 L564,970 L560,981 L554,988 L565,1005 L564,1011 L561,1015 L555,1018 L541,1018 L536,1016 L528,1006 L525,1012 L517,1018 L505,1018 L500,1016 L496,1012 L495,943 Z M171,831 L180,812 L200,759 L236,742 L237,745 L220,780 L211,809 L212,830 L218,842 L225,849 L241,856 L258,856 L269,853 L282,846 L293,854 L301,856 L319,856 L337,849 L347,841 L351,844 L352,847 L341,850 L330,859 L311,867 L300,869 L280,869 L254,864 L226,855 L173,835 Z M655,844 L657,837 L664,825 L678,812 L686,808 L701,804 L723,804 L731,806 L734,804 L777,694 L798,653 L808,639 L827,619 L844,607 L863,599 L885,597 L895,599 L904,603 L913,611 L918,618 L922,631 L922,647 L917,664 L912,674 L899,693 L879,713 L880,714 L895,715 L903,719 L907,719 L914,716 L929,716 L936,718 L941,721 L947,729 L947,741 L949,741 L963,728 L981,718 L997,714 L1009,714 L1019,716 L1037,679 L1053,651 L1062,642 L1071,637 L1090,636 L1100,640 L1107,646 L1111,654 L1111,664 L1078,721 L1095,717 L1109,719 L1115,722 L1120,727 L1124,737 L1128,730 L1135,723 L1147,719 L1159,719 L1171,724 L1178,734 L1178,744 L1144,813 L1148,812 L1157,805 L1163,805 L1169,808 L1174,817 L1174,823 L1170,832 L1162,843 L1144,859 L1123,871 L1113,874 L1093,905 L1076,922 L1063,931 L1047,937 L1026,938 L1017,936 L1007,931 L999,923 L994,914 L992,905 L993,892 L996,885 L996,882 L992,879 L986,879 L976,893 L960,908 L942,918 L916,925 L888,925 L862,920 L827,907 L784,884 L759,868 L756,868 L738,883 L717,892 L692,893 L681,890 L669,883 L661,874 L655,860 Z M816,77 L831,93 L846,113 L858,132 L876,167 L893,212 L901,245 L912,278 L919,313 L922,352 L920,393 L914,430 L908,453 L899,478 L890,497 L876,520 L842,562 L814,590 L784,612 L750,629 L725,637 L710,640 L674,643 L650,651 L619,656 L557,657 L553,668 L527,712 L543,715 L551,719 L557,725 L563,737 L568,728 L574,722 L587,717 L601,717 L609,720 L615,725 L620,736 L624,728 L629,723 L639,718 L659,718 L666,721 L672,727 L675,734 L675,741 L646,799 L656,800 L662,805 L664,809 L664,819 L652,837 L637,851 L628,857 L614,863 L598,889 L582,907 L562,920 L547,924 L533,924 L517,918 L510,912 L503,900 L502,885 L504,877 L511,865 L528,850 L526,848 L515,852 L501,852 L494,850 L485,845 L475,835 L473,831 L468,841 L462,847 L450,851 L434,850 L428,847 L422,840 L410,846 L397,850 L373,850 L360,845 L349,835 L345,836 L335,844 L317,851 L298,850 L290,846 L283,839 L269,847 L257,851 L238,850 L230,846 L221,837 L217,828 L216,812 L219,798 L227,777 L252,728 L251,726 L222,744 L198,753 L196,755 L182,793 L163,836 L242,866 L279,874 L304,874 L313,872 L330,865 L344,854 L355,854 L362,862 L362,875 L354,892 L337,910 L316,922 L299,927 L279,929 L257,927 L235,922 L214,915 L174,898 L138,880 L136,880 L115,899 L104,905 L89,910 L67,910 L55,906 L49,902 L41,894 L35,882 L34,867 L39,852 L53,836 L67,828 L86,823 L106,823 L129,765 L128,763 L109,760 L93,753 L79,741 L71,728 L68,715 L68,704 L72,690 L80,677 L94,665 L109,659 L123,661 L129,669 L129,675 L115,690 L113,696 L114,702 L119,709 L127,713 L138,716 L147,716 L162,680 L178,650 L192,630 L213,608 L228,597 L247,588 L266,584 L281,585 L296,591 L309,603 L315,617 L316,635 L311,655 L302,673 L290,690 L268,713 L269,715 L281,714 L288,715 L297,719 L304,728 L306,738 L309,736 L314,726 L323,718 L334,715 L350,716 L355,718 L362,724 L365,731 L366,741 L374,732 L383,725 L399,717 L413,714 L426,714 L437,717 L444,721 L451,728 L456,739 L501,649 L500,646 L485,643 L448,629 L432,621 L405,604 L385,588 L360,563 L346,546 L338,533 L298,541 L293,540 L291,538 L291,532 L295,528 L324,513 L313,490 L303,462 L294,422 L291,393 L291,352 L297,310 L306,276 L318,245 L339,206 L366,170 L394,142 L414,126 L443,107 L473,92 L521,76 L541,72 L569,69 L601,69 L619,72 L624,77 L624,83 L621,87 L630,90 L639,81 L647,77 L651,67 L662,54 L678,43 L702,35 L729,34 L760,41 L788,55 Z" fill="#A7A9AC" fill-rule="evenodd"/>
<path d="M835,975 L836,981 L902,980 L901,974 Z M312,975 L313,981 L378,980 L377,974 Z M696,948 L690,946 L659,947 L660,1007 L670,1006 L670,989 L672,987 L692,986 L700,982 L704,977 L706,972 L706,961 L703,954 Z M670,957 L672,955 L685,955 L691,957 L696,964 L695,971 L688,977 L672,977 L670,975 Z M601,946 L600,1006 L610,1007 L610,946 Z M506,946 L505,1006 L515,1007 L516,987 L518,985 L527,985 L542,1007 L553,1007 L554,1006 L540,986 L550,977 L552,973 L553,961 L551,955 L545,949 L537,946 Z M516,957 L518,955 L533,955 L538,957 L542,962 L541,971 L535,976 L518,977 L516,975 Z M414,946 L414,955 L430,955 L432,957 L432,1006 L442,1007 L443,957 L445,955 L461,955 L462,947 Z M765,945 L757,948 L751,954 L749,960 L750,970 L755,976 L761,979 L779,984 L782,987 L783,992 L778,998 L774,999 L764,998 L753,992 L747,999 L751,1003 L763,1008 L778,1008 L786,1005 L791,1000 L793,996 L793,984 L786,976 L777,972 L764,969 L760,965 L760,959 L765,955 L772,954 L777,955 L784,960 L787,960 L792,953 L781,946 Z M1167,736 L1159,731 L1147,731 L1141,733 L1137,737 L1113,786 L1099,805 L1090,813 L1083,817 L1079,817 L1075,812 L1077,802 L1111,739 L1110,733 L1105,730 L1094,729 L1084,732 L1073,750 L1053,791 L1032,812 L1023,817 L1019,816 L1017,814 L1017,807 L1031,777 L1067,714 L1099,662 L1099,656 L1097,653 L1089,650 L1077,650 L1069,653 L1060,663 L1022,733 L1017,729 L1009,726 L996,726 L983,730 L971,737 L954,753 L947,762 L935,784 L931,796 L915,812 L909,816 L901,816 L899,813 L899,807 L908,787 L936,737 L935,731 L930,728 L915,728 L910,730 L904,736 L898,729 L894,727 L877,726 L857,734 L841,747 L830,760 L821,774 L815,787 L811,801 L811,823 L815,832 L819,836 L828,840 L839,840 L846,838 L859,830 L868,821 L874,834 L884,840 L896,840 L905,837 L915,831 L927,820 L930,823 L933,832 L938,837 L945,840 L961,839 L974,832 L985,822 L988,824 L988,829 L990,833 L995,838 L1000,840 L1014,840 L1022,837 L1036,828 L1043,821 L1046,824 L1046,828 L1049,834 L1053,838 L1062,841 L1075,840 L1089,832 L1090,835 L1082,851 L1079,854 L1054,859 L1025,871 L1010,884 L1006,891 L1004,906 L1007,914 L1013,921 L1024,926 L1043,926 L1055,922 L1068,914 L1084,898 L1105,865 L1117,861 L1137,850 L1152,837 L1162,822 L1161,816 L1134,837 L1120,844 L1117,842 L1165,745 Z M1068,876 L1055,894 L1044,904 L1036,908 L1028,908 L1022,903 L1023,895 L1033,885 L1054,876 L1066,874 Z M1007,745 L1011,749 L1011,757 L995,788 L977,810 L970,815 L962,816 L958,811 L958,800 L962,788 L970,773 L978,762 L990,750 L1002,744 Z M889,745 L893,749 L893,758 L878,787 L868,801 L857,812 L850,816 L844,816 L840,811 L840,801 L843,791 L851,775 L862,760 L871,751 L880,745 Z M663,735 L660,731 L653,729 L638,731 L633,736 L610,783 L603,794 L589,810 L580,816 L575,816 L572,813 L572,806 L575,798 L607,739 L606,732 L600,729 L587,729 L580,732 L575,739 L549,793 L543,801 L529,814 L522,817 L513,816 L507,810 L503,802 L501,793 L503,791 L520,786 L533,778 L543,768 L551,751 L550,737 L548,733 L541,727 L534,725 L526,725 L518,727 L506,734 L503,733 L523,695 L546,656 L546,649 L543,645 L538,643 L525,643 L516,647 L510,656 L482,712 L450,783 L434,799 L416,812 L402,817 L393,817 L387,814 L381,804 L382,788 L388,773 L398,758 L405,751 L415,745 L420,744 L425,748 L423,755 L415,766 L416,770 L419,773 L423,774 L429,773 L434,770 L439,765 L445,750 L445,744 L441,734 L430,727 L412,726 L399,730 L384,739 L370,753 L362,765 L355,780 L351,795 L332,813 L326,816 L322,816 L319,813 L319,805 L321,799 L353,738 L353,731 L351,729 L346,727 L334,727 L326,730 L323,733 L300,780 L289,796 L272,813 L266,816 L262,816 L258,811 L260,800 L293,736 L293,733 L289,728 L277,726 L266,729 L261,735 L234,791 L229,806 L228,822 L230,829 L236,836 L242,839 L251,840 L267,835 L288,818 L290,821 L290,827 L296,836 L302,839 L311,840 L327,835 L336,829 L351,815 L359,829 L365,834 L378,839 L393,839 L413,832 L434,817 L436,819 L433,826 L432,835 L438,839 L451,839 L458,835 L469,807 L474,801 L479,817 L485,829 L492,836 L501,840 L514,840 L523,837 L534,830 L541,823 L546,834 L556,840 L572,839 L586,832 L587,833 L579,846 L559,851 L534,861 L520,873 L515,882 L514,894 L516,900 L523,908 L533,912 L547,912 L560,908 L571,901 L591,879 L603,857 L606,854 L620,848 L631,841 L645,828 L650,821 L653,814 L652,811 L647,813 L640,820 L627,829 L619,833 L617,831 L662,742 Z M570,866 L562,879 L550,891 L541,895 L538,895 L533,892 L532,886 L540,876 L555,868 L568,864 Z M525,747 L525,753 L523,757 L510,771 L490,781 L484,782 L482,780 L490,766 L506,750 L517,744 L521,744 Z M902,616 L893,611 L885,609 L865,611 L841,623 L820,643 L804,666 L789,696 L741,817 L739,819 L717,815 L700,816 L690,819 L681,824 L672,834 L667,846 L667,859 L671,868 L679,876 L691,881 L698,882 L716,880 L732,873 L738,869 L754,853 L757,853 L797,878 L829,895 L859,907 L878,912 L894,914 L918,913 L936,908 L954,898 L965,888 L971,880 L975,872 L974,870 L954,880 L934,885 L905,885 L892,883 L866,876 L836,864 L771,832 L768,829 L786,789 L805,741 L840,726 L862,712 L888,688 L899,673 L907,658 L911,643 L910,630 Z M685,855 L685,850 L687,846 L692,841 L699,838 L715,837 L724,839 L728,842 L714,858 L704,863 L691,862 Z M882,633 L886,637 L886,648 L881,661 L872,675 L849,699 L833,711 L816,720 L814,718 L834,676 L850,652 L867,636 L876,632 Z M293,603 L280,597 L267,596 L255,598 L234,607 L219,618 L202,636 L188,656 L170,691 L157,725 L154,728 L140,728 L123,724 L112,718 L105,710 L102,703 L103,688 L109,679 L118,672 L116,670 L102,673 L87,686 L80,702 L80,718 L88,734 L93,739 L107,747 L128,752 L143,752 L145,756 L115,833 L113,835 L93,834 L73,838 L60,845 L50,856 L46,867 L46,876 L49,885 L56,893 L61,896 L72,899 L83,899 L98,895 L116,884 L134,866 L191,893 L223,906 L255,915 L270,917 L287,917 L304,914 L317,909 L330,901 L341,890 L350,875 L352,868 L350,865 L348,865 L334,876 L317,883 L301,886 L280,886 L261,883 L235,876 L150,845 L147,842 L168,796 L187,746 L191,743 L209,737 L227,728 L251,712 L271,694 L292,667 L300,651 L304,637 L303,618 L300,611 Z M101,859 L97,866 L89,874 L81,879 L73,880 L66,875 L66,868 L75,860 L86,857 L99,857 Z M275,622 L279,628 L278,640 L272,654 L263,668 L252,681 L237,695 L222,706 L202,716 L200,714 L208,694 L225,661 L238,642 L253,627 L259,623 L267,620 Z M356,543 L370,560 L393,582 L415,599 L434,611 L468,627 L503,638 L507,638 L514,632 L524,628 L543,629 L550,633 L556,639 L559,646 L563,647 L611,647 L653,640 L673,633 L678,633 L699,625 L719,615 L743,597 L722,606 L695,613 L648,613 L621,607 L603,601 L576,590 L530,568 L507,559 L471,548 L446,543 L419,540 L371,540 Z M300,532 L338,524 L376,520 L414,520 L450,524 L477,530 L506,539 L549,556 L591,575 L632,590 L670,598 L693,598 L715,594 L729,589 L737,584 L760,558 L774,536 L782,517 L764,533 L736,549 L714,556 L690,559 L664,558 L636,553 L599,543 L510,512 L480,505 L448,501 L416,501 L375,506 L330,518 Z M790,477 L757,501 L724,516 L716,518 L713,513 L699,521 L676,530 L640,535 L667,539 L690,539 L706,537 L731,530 L750,521 L763,512 L778,497 Z M487,390 L457,398 L445,417 L434,439 L455,432 Z M811,395 L809,391 L799,387 L781,383 L760,381 L717,383 L670,391 L614,405 L525,431 L434,464 L416,465 L385,477 L351,496 L399,487 L456,486 L504,494 L564,512 L595,518 L629,520 L677,514 L725,500 L746,479 L769,452 L801,411 Z M802,395 L799,399 L789,397 L726,397 L686,402 L681,401 L682,399 L703,395 L747,390 L799,392 Z M596,389 L578,376 L551,363 L524,375 L514,382 L494,402 L480,423 L541,404 L595,391 Z M573,357 L574,359 L596,370 L620,386 L646,381 L673,378 L720,377 L718,374 L694,359 L676,350 L670,349 L619,349 Z M465,387 L499,366 L542,348 L585,338 L618,335 L639,335 L620,329 L597,326 L574,326 L542,331 L537,327 L527,325 L505,330 L491,336 L507,343 L511,347 L513,352 L479,369 L468,381 Z M561,206 L547,200 L529,200 L518,204 L502,216 L500,214 L500,196 L493,180 L482,170 L467,165 L459,166 L476,184 L475,187 L479,195 L483,198 L482,202 L486,214 L485,217 L470,202 L455,194 L445,192 L432,193 L423,196 L407,206 L435,208 L439,206 L441,208 L440,211 L458,217 L476,229 L473,231 L461,228 L444,228 L429,232 L418,238 L406,249 L396,267 L394,275 L415,260 L419,260 L425,257 L430,250 L434,253 L451,247 L455,244 L473,244 L447,265 L429,284 L413,306 L398,334 L388,361 L381,393 L380,433 L382,451 L385,461 L408,450 L403,429 L401,411 L402,387 L405,369 L410,349 L417,330 L426,311 L441,287 L463,261 L486,243 L489,246 L496,263 L500,268 L500,275 L504,279 L503,286 L507,300 L508,315 L518,297 L520,289 L520,274 L517,263 L506,246 L507,243 L522,251 L524,250 L527,254 L540,263 L544,261 L546,263 L546,268 L565,289 L565,275 L563,266 L554,249 L546,241 L535,235 L525,232 L507,230 L512,226 L522,223 L526,219 L534,220 L545,218 L546,215 L551,217 L574,220 L571,215 Z M646,86 L632,101 L627,110 L622,125 L621,150 L625,165 L629,173 L644,190 L653,194 L649,182 L649,166 L651,160 L662,148 L670,143 L678,135 L679,139 L674,149 L665,158 L656,163 L658,168 L669,178 L680,183 L698,184 L705,182 L710,174 L710,161 L704,147 L695,137 L679,126 L676,115 L668,101 L660,93 Z M699,94 L701,102 L706,106 L714,106 L723,97 L729,97 L724,93 L715,95 L712,92 L712,90 L716,86 L714,84 L705,85 L702,87 Z M610,79 L572,78 L525,85 L492,95 L458,110 L421,133 L400,150 L374,176 L355,200 L338,227 L317,274 L307,309 L301,349 L301,399 L305,428 L314,464 L326,495 L329,495 L343,485 L343,481 L336,466 L329,445 L321,407 L319,386 L319,353 L322,325 L329,293 L337,268 L354,231 L367,210 L385,186 L414,156 L443,133 L474,114 L500,102 L535,90 L573,82 Z" fill="#001A3D" fill-rule="evenodd"/>
<path d="M825,338 L824,340 L827,347 L834,380 L835,431 L828,469 L814,508 L804,528 L788,553 L777,567 L757,587 L748,593 L738,603 L719,616 L682,633 L705,632 L738,624 L751,619 L781,603 L803,587 L825,565 L840,545 L854,519 L863,494 L868,471 L868,424 L864,406 L858,389 L846,366 Z M661,65 L675,73 L682,80 L694,70 L707,66 L722,67 L742,77 L754,89 L762,103 L766,119 L765,132 L780,135 L800,142 L818,152 L837,166 L865,196 L883,224 L894,246 L888,222 L878,193 L856,146 L846,129 L826,101 L812,86 L796,72 L782,62 L765,53 L749,47 L729,43 L708,43 L693,46 L673,55 Z" fill="#0056B8" fill-rule="evenodd"/>
<path d="M763,142 L754,159 L727,184 L721,194 L716,214 L716,224 L719,240 L724,253 L732,266 L749,284 L767,296 L782,303 L785,303 L766,283 L758,272 L751,258 L746,239 L746,223 L748,212 L751,208 L752,221 L756,238 L763,255 L778,277 L836,335 L852,356 L861,371 L874,401 L880,431 L880,458 L875,489 L869,508 L862,523 L863,524 L878,501 L888,481 L899,451 L908,413 L912,378 L912,336 L907,300 L897,271 L884,242 L869,216 L851,192 L827,169 L801,152 L784,145 L771,142 Z" fill="#FFC400" fill-rule="evenodd"/>
<path d="M660,67 L656,71 L653,78 L663,82 L676,94 L681,80 L672,72 Z" fill="#009B55" fill-rule="evenodd"/>
</g>
</svg>
